<?xml version="1.0" encoding="utf-8"?>
<!-- Generator: Adobe Illustrator 24.3.2, SVG Export Plug-In . SVG Version: 6.00 Build 0)  -->
<svg version="1.1" id="Layer_1" xmlns="http://www.w3.org/2000/svg" xmlns:xlink="http://www.w3.org/1999/xlink" x="0px" y="0px"
	 viewBox="0 0 800 1727" style="enable-background:new 0 0 800 1727;" xml:space="preserve">
<style type="text/css">
	.st0{fill:none;stroke:#FDFCF4;stroke-width:3;}
	.st1{font-family:'Roboto-Regular';}
	.st2{font-size:30px;}
	.st3{fill:#9B5433;}
	.st4{font-family:'Roboto-Bold';}
	.st5{fill:none;}
	.st6{fill:#231815;}
	.st7{fill:#FFFFFF;}
</style>
<image style="overflow:visible;" width="779" height="1594" xlink:href="2C313DD2B650A01B.jpg"  transform="matrix(1 0 0 1 8 86)">
</image>
<g>
	<g>
		<text transform="matrix(1 0 0 1 675.1006 423.9064)" class="st0 st1 st2">Roof</text>
	</g>
	<g>
		<text transform="matrix(1 0 0 1 650.8623 1053.8066)" class="st3 st4 st2">Dougong</text>
	</g>
	<rect x="8" y="66.6" class="st5" width="258.8" height="255.5"/>
	<text transform="matrix(1 0 0 1 36.7212 89.0582)"><tspan x="0" y="0" class="st6 st1 st2">The tower has 54 </tspan><tspan x="-25.7" y="36" class="st6 st1 st2">types of dougongs. </tspan><tspan x="-19.8" y="72" class="st6 st1 st2">Here there is just 3 </tspan><tspan x="-11.1" y="108" class="st6 st1 st2">of them located in </tspan><tspan x="-26.7" y="144" class="st6 st1 st2">the first floor of the </tspan><tspan x="124.6" y="180" class="st6 st1 st2">building</tspan></text>
	<rect x="-6.5" y="501.2" class="st5" width="273.3" height="215.5"/>
	<text transform="matrix(1 0 0 1 54.1528 523.7194)"><tspan x="0" y="0" class="st6 st1 st2">This dougong is </tspan><tspan x="-48.9" y="36" class="st6 st1 st2">holding the roof top </tspan><tspan x="5.5" y="72" class="st6 st1 st2">of the first floor</tspan></text>
	<text transform="matrix(1 0 0 1 504.585 672.3312)" class="st6 st1 st2">Beam</text>
	<text transform="matrix(1 0 0 1 675.1006 423.9064)" class="st6 st1 st2">Roof</text>
	<text transform="matrix(1 0 0 1 375.3608 289.151)" class="st6 st1 st2">Beam</text>
	<text transform="matrix(1 0 0 1 645.29 289.151)" class="st6 st1 st2">Beam</text>
	<g>
		<text transform="matrix(1 0 0 1 354.0986 87.6217)" class="st3 st4 st2">Duogong</text>
	</g>
	<g>
		<text transform="matrix(1 0 0 1 615.3984 87.6217)" class="st3 st4 st2">Duogong</text>
	</g>
	<rect x="479.7" y="388.6" class="st6" width="133" height="41.5"/>
	<text transform="matrix(1 0 0 1 485.4375 417.1173)" class="st7 st4 st2">Dougong</text>
	<text transform="matrix(1 0 0 1 709.0166 905.3701)" class="st6 st1 st2">Roof</text>
	<text transform="matrix(1 0 0 1 234.4805 1184.2979)" class="st6 st1 st2">Beam</text>
	<text transform="matrix(1 0 0 1 13.9121 981.8398)" class="st6 st1 st2">Rafter</text>
	<text transform="matrix(1 0 0 1 668.8213 1380.6904)" class="st6 st1 st2">Column</text>
</g>
</svg>
