<?xml version="1.0" encoding="utf-8"?>
<!-- Generator: Adobe Illustrator 24.3.2, SVG Export Plug-In . SVG Version: 6.00 Build 0)  -->
<svg version="1.1" id="Layer_1" xmlns="http://www.w3.org/2000/svg" xmlns:xlink="http://www.w3.org/1999/xlink" x="0px" y="0px"
	 viewBox="0 0 800 818" style="enable-background:new 0 0 800 818;" xml:space="preserve">
<style type="text/css">
	@import url('https://fonts.googleapis.com/css?family=Roboto:300,400,700');
	.st0{fill:#231815;}
	.st1{font-family:'Roboto';font-weight: 300;}
	.st2{font-size:28px;}
	.st3{font-size:24.587px;}
	.st4{fill:none;}
</style>
<image style="overflow:visible;" width="781" height="624" xlink:href="4287DB7B4C044BE9.jpg"  transform="matrix(1 0 0 1 13 2)">
</image>
<g>
	<text transform="matrix(1 0 0 1 14.803 40.9641)"><tspan x="0" y="0" class="st0 st1 st2">Inner tank</tspan><tspan x="0" y="33.6" class="st0 st1 st2">To worship</tspan><tspan x="0" y="67.2" class="st0 st1 st2">Buddha</tspan></text>
</g>
<g>
	<text transform="matrix(1 0 0 1 134.4035 446.9065)" class="st0 st1 st3">Access</text>
</g>
<g>
	<text transform="matrix(1 0 0 1 611.5842 114.6458)" class="st0 st1 st3">Access</text>
</g>
<polygon class="st4" points="379.2,839 23,839 23,592.2 341,592.2 "/>
<text transform="matrix(1 0 0 1 23.0422 613.2434)"><tspan x="0" y="0" class="st0 st1 st2">The total weight of the </tspan><tspan x="0" y="33.6" class="st0 st1 st2">wooden tower, excluding </tspan><tspan x="0" y="67.2" class="st0 st1 st2">the secondary column, is </tspan><tspan x="0" y="100.8" class="st0 st1 st2">mainly borne by 32 </tspan><tspan x="0" y="134.4" class="st0 st1 st2">columns on both sides of </tspan><tspan x="0" y="168" class="st0 st1 st2">the outer and inner walls.</tspan></text>
<rect x="453" y="592.1" class="st4" width="330" height="207.9"/>
<text transform="matrix(1 0 0 1 456.6663 613.0881)"><tspan x="0" y="0" class="st0 st1 st2">The first layer of the tower </tspan><tspan x="53.3" y="33.6" class="st0 st1 st2">uses an extra circle of </tspan><tspan x="-1" y="67.2" class="st0 st1 st2">outer pillars than the other </tspan><tspan x="33" y="100.8" class="st0 st1 st2">layers, that is, 24 visible </tspan><tspan x="9.9" y="134.4" class="st0 st1 st2">pillars are attached to the </tspan><tspan x="187.3" y="168" class="st0 st1 st2">outer circle</tspan></text>
</svg>
