<?xml version="1.0" encoding="utf-8"?>
<!-- Generator: Adobe Illustrator 26.5.0, SVG Export Plug-In . SVG Version: 6.00 Build 0)  -->
<svg version="1.1" id="Capa_1" xmlns="http://www.w3.org/2000/svg" xmlns:xlink="http://www.w3.org/1999/xlink" x="0px" y="0px"
	 viewBox="0 0 1920 3892" style="enable-background:new 0 0 1920 3892;" xml:space="preserve">
<style type="text/css">
	@import url('https://fonts.googleapis.com/css?family=Roboto:300,400,700');
	.st0{fill:none;}
	.st1{fill:#231815;}
	.st2{font-family:'Roboto';font-weight: 300;}
	.st3{font-size:24px;}
	.st4{font-family:'Roboto';font-weight: 700;}
	.st5{font-size:80px;}
	.st6{font-size:24.7688px;}
	.st7{font-size:50px;}
	.st8{font-size:30px;}
	.st9{fill:#DD531C;}
	.st10{font-size:52px;}
	.st11{fill:#717071;}
	.st12{font-size:28px;}
	.st13{opacity:0.8;}
	.st14{fill:#FFFFFF;}
	.st15{fill:none;stroke:#FFFFFF;stroke-width:2;stroke-miterlimit:10;}
	.st16{fill:#0099C9;}
	.st17{fill:none;stroke:#0099C9;stroke-width:2;stroke-miterlimit:10;}
</style>
<g id="Layer_1">
	
		<image style="overflow:visible;enable-background:new    ;" width="1921" height="3891" xlink:href="8E77050DDB2A0370.jpg"  transform="matrix(1 0 0 1 -1 0)">
	</image>
</g>
<g id="Layer_2">
	<rect x="564.2" y="515.4" class="st0" width="244.3" height="278.7"/>
	<rect x="589.6" y="253.4" class="st0" width="733.5" height="139.2"/>
	<g>
		<text transform="matrix(1 0 0 1 1076.3207 527.6636)" class="st1 st2 st3">Total height 67.31 m</text>
	</g>
	<g>
		<text transform="matrix(1 0 0 1 473.1146 212.5972)" class="st1 st4 st5">As strong as 50 million trees</text>
	</g>
	<text transform="matrix(1 0 0 1 819.9974 657.3823)" class="st1 st4 st6">11 m</text>
	<g>
		<text transform="matrix(1 0 0 1 844.1155 3333.2388)" class="st1 st4 st7">500 km2</text>
	</g>
	<text transform="matrix(1 0 0 1 674.8167 3263.2153)" class="st1 st2 st3">The wooden pagoda is made with the equivalent of</text>
	<g>
		<rect x="541.4" y="3416.3" class="st0" width="808.8" height="70.3"/>
		<text transform="matrix(1 0 0 1 562.7836 3434.3364)" class="st1 st2 st3">The 50 million trees used to build the pagoda are equivalent to filling the </text>
		<text transform="matrix(1 0 0 1 609.1837 3463.1365)" class="st1 st2 st3">entire area of the Chaoyang district with trees, and a little more.</text>
	</g>
	<text transform="matrix(1 0 0 1 1098.6146 3752.0767)" class="st1 st2 st3">Andorra</text>
	<text transform="matrix(1 0 0 1 1065.0146 3780.8767)" class="st1 st2 st3">(Country area)</text>
	<text transform="matrix(1 0 0 1 1087.0638 3559.5063)" class="st1 st4 st8">468 km²</text>
	<text transform="matrix(1 0 0 1 859.1805 3752.0767)" class="st1 st2 st3">Chaoyang District</text>
	<text transform="matrix(1 0 0 1 878.6805 3780.8767)" class="st1 st2 st3">Beijing, China.</text>
	<text transform="matrix(1 0 0 1 899.5912 3553.6177)" class="st1 st4 st8">470 km²</text>
	<text transform="matrix(1 0 0 1 702.8729 3752.0767)" class="st1 st2 st3">50 million</text>
	<text transform="matrix(1 0 0 1 728.0729 3780.8767)" class="st1 st2 st3">trees</text>
	<text transform="matrix(1 0 0 1 701.2787 3547.7251)" class="st1 st4 st8">500 km²</text>
	<g>
		<text transform="matrix(1 0 0 1 739.9144 115.5972)" class="st9 st4 st10">Sakyamuni Pagoda</text>
	</g>
	<rect x="1369.2" y="765.7" class="st0" width="410" height="127.9"/>
	<text transform="matrix(1 0 0 1 1540.1752 634.48)" class="st11 st2 st8">SHANXI</text>
	<g>
		<text transform="matrix(1 0 0 1 817.4641 3224.2983)" class="st9 st4 st12">50 MILLIONS TREES</text>
	</g>
	<g class="st13">
		<rect x="728" y="2887" class="st14" width="470" height="205"/>
	</g>
	<g>
		<path class="st14" d="M1196,2889v201H730v-201H1196 M1198,2887H728v205h470V2887L1198,2887z"/>
	</g>
	<rect x="751.2" y="2904.5" class="st0" width="403.9" height="187.1"/>
	<g>
		<g>
			<line class="st15" x1="964.5" y1="2887" x2="964.5" y2="2687.4"/>
			<g>
				<path class="st14" d="M974.1,2701.1c-0.5,0.3-1.1,0.2-1.4-0.3l-8.2-12.9l-8.2,12.9c-0.3,0.5-0.9,0.6-1.4,0.3s-0.6-0.9-0.3-1.4
					l9.1-14.2c0.2-0.3,0.5-0.5,0.8-0.5s0.7,0.2,0.8,0.5l9.1,14.2c0.1,0.2,0.2,0.4,0.2,0.5C974.6,2700.5,974.4,2700.9,974.1,2701.1z"
					/>
			</g>
		</g>
	</g>
	<g>
		<rect x="1376.1" y="768.1" class="st0" width="424.9" height="94.7"/>
		<text transform="matrix(1 0 0 1 1398.8668 786.1028)"><tspan x="0" y="0" class="st1 st2 st3">The Sakyamuni Pagoda is located in </tspan><tspan x="-21.5" y="28.8" class="st1 st2 st3">ground of the of Fogong Temple in Ying</tspan><tspan x="394" y="28.8" class="st1 st2 st3">-</tspan><tspan x="28.3" y="57.6" class="st1 st2 st3">xian county, Shuozhou, Shanxi.</tspan></text>
	</g>
	<g>
		<rect x="544.1" y="541.3" class="st0" width="239" height="281.9"/>
		<text transform="matrix(1 0 0 1 547.0907 559.3295)"><tspan x="0" y="0" class="st1 st2 st3">The top of the pagoda, </tspan><tspan x="33" y="28.8" class="st1 st2 st3">known as a finial, is </tspan><tspan x="37.9" y="57.6" class="st1 st2 st3">formed by iron and </tspan><tspan x="38.9" y="86.4" class="st1 st2 st3">stone components </tspan><tspan x="56.3" y="115.2" class="st1 st2 st3">that carry special </tspan><tspan x="13.9" y="144" class="st1 st2 st3">Buddhist and cultural </tspan><tspan x="126.6" y="172.8" class="st1 st2 st3">meanings.</tspan></text>
	</g>
	<rect x="419.4" y="825.5" class="st0" width="234.8" height="168.9"/>
	<text transform="matrix(1 0 0 1 419.375 843.5171)"><tspan x="0" y="0" class="st16 st2 st3">Click the numbers to </tspan><tspan x="0" y="28.8" class="st16 st2 st3">kow the Buddhas </tspan><tspan x="0" y="57.6" class="st16 st2 st3">chambers</tspan></text>
	<g>
		<g>
			<path class="st17" d="M441.6,933.6c0,0-15,161.3,89.7,221.6"/>
			<g>
				<polygon class="st16" points="524.2,1162.6 544.1,1161.8 533.5,1145 				"/>
			</g>
		</g>
	</g>
	<g>
		<g>
			<path class="st16" d="M378.4,828.3c1,0.2,2.1,0.4,3.1,0.8c5.9,2.1,9.5,7.6,9,13.9c-0.1,1.5-0.5,3-1.2,4.4c-0.4,0.9-1.2,1.2-2,0.9
				c-0.8-0.3-1.2-1.2-0.8-2.1c0.6-1.3,0.9-2.7,1-4.2c0.2-5.2-3.6-9.8-8.8-10.6c-5.8-0.8-11.2,3.2-11.8,9c-0.3,2.7,0.4,5.2,2,7.4
				c0.2,0.3,0.5,0.7,0.6,1c0.2,0.7-0.1,1.4-0.8,1.7c-0.6,0.3-1.4,0.2-1.9-0.4c-1.3-1.5-2.2-3.3-2.7-5.2c-1.7-6.9,1.9-13.6,8.7-16
				c1-0.3,2-0.5,3-0.7C376.7,828.3,377.5,828.3,378.4,828.3z"/>
			<path class="st16" d="M388,893.3c-3.1,0-6.3,0-9.4,0c-1.5,0-2.2-0.6-2.3-2.1c-0.1-1.8-0.2-3.5-0.4-5.3c-0.1-0.5-0.3-1.1-0.6-1.5
				c-2-3.1-3.8-6.2-5.2-9.6c-0.8-2.1-1.5-4.3-1.4-6.6c0.1-2.1,0.9-3.8,2.9-4.7c0.9-0.4,1.3-1.1,1.3-2.1c0-7.3,0-14.6,0-22
				c0-1.5,0.3-2.8,1.7-3.7c1.4-1,2.9-1,4.5-0.3c1.4,0.7,2.1,1.9,2.1,3.5c0,3.4,0,6.9,0,10.3c0,1.8,0.7,2.4,2.5,2.3
				c2-0.2,3.7,0.4,5,2c0.6,0.8,1.4,1.1,2.4,0.9c2.6-0.6,4.7,0.1,6.3,2.4c0.5,0.7,1.2,0.8,1.9,0.9c2.1,0.2,3.7,1.1,4.9,2.9
				c0.9,1.3,1.3,2.8,1.5,4.3c1,7-0.7,13.3-4.4,19.2c-0.7,1.2-0.9,2.4-1.1,3.7c-0.2,1.3-0.3,2.6-0.5,3.9c-0.2,1.2-0.8,1.8-2.1,1.8
				C394.4,893.2,391.2,893.2,388,893.3C388,893.3,388,893.3,388,893.3z"/>
		</g>
	</g>
	<g>
		<rect x="577.5" y="269.6" class="st0" width="770.3" height="132.1"/>
		<text transform="matrix(1 0 0 1 591.4648 290.582)"><tspan x="0" y="0" class="st1 st2 st12">The Yingxian Wooden Pagoda, also known as the Sakyamuni </tspan><tspan x="4.8" y="33.6" class="st1 st2 st12">Pagoda of Fogong Temple, was built in 1056 during the Liao </tspan><tspan x="2.8" y="67.2" class="st1 st2 st12">Dynasty. It stands as the oldest and tallest surviving wooden </tspan><tspan x="247.2" y="100.8" class="st1 st2 st12">pagoda in the world.</tspan></text>
	</g>
</g>
<g>
	<rect x="762.9" y="2929" class="st0" width="392.2" height="141.8"/>
	<text transform="matrix(1 0 0 1 777.5889 2947.0027)"><tspan x="0" y="0" class="st1 st2 st3">After the deification of the Buddha, </tspan><tspan x="8.1" y="32" class="st1 st2 st3">worshiping gradually became the </tspan><tspan x="-12.7" y="64" class="st1 st2 st3">most important and basic element of </tspan><tspan x="82.7" y="96" class="st1 st2 st3">Buddhist activities.</tspan></text>
</g>
</svg>
