<?xml version="1.0" encoding="utf-8"?>
<!-- Generator: Adobe Illustrator 24.3.2, SVG Export Plug-In . SVG Version: 6.00 Build 0)  -->
<svg version="1.1" xmlns="http://www.w3.org/2000/svg" xmlns:xlink="http://www.w3.org/1999/xlink" x="0px" y="0px"
	 viewBox="0 0 800 2271" style="enable-background:new 0 0 800 2271;" xml:space="preserve">
<style type="text/css">
	@import url('https://fonts.googleapis.com/css?family=Roboto:300,400,700';);
	.st0{fill:#231815;}
	.st1{font-family:'Roboto';font-weight: 700;}
	.st2{font-size:40px;}
	.st3{font-family:'Roboto';font-weight: 300;}
	.st4{font-size:22px;}
	.st5{fill:none;}
	.st6{font-size:20px;}
	.st7{font-family:'Roboto';font-weight: 700;}
	.st8{font-size:24px;}
	.st9{font-size:57px;}
	.st10{fill:#DD531C;}
	.st11{font-size:48px;}
	.st12{fill:#717071;}
	.st13{fill:#FFFFFF;}
	.st14{fill:none;stroke:#E95513;stroke-miterlimit:10;}
	.st15{fill:#E95513;}
	.st16{font-size:26px;}
	.st17{font-size:19.366px;}
	.st18{font-size:28px;}
	.st19{fill:#1283E5;}
</style>
<g id="Layer_1">
	<image style="overflow:visible;" width="801" height="2271" xlink:href="CB7F100B7640C512.jpg"  transform="matrix(1 0 0 1 -2 0)">
	</image>
</g>
<g id="Layer_2">
	<g>
		<text transform="matrix(1 0 0 1 316.9104 1883.7941)" class="st0 st1 st2">500 km2</text>
	</g>
	<g>
		<text transform="matrix(1 0 0 1 257.1965 1815.5299)"><tspan x="0" y="0" class="st0 st3 st4">The wooden pagoda is made</tspan><tspan x="36.4" y="24" class="st0 st3 st4">with the equivalent of</tspan></text>
	</g>
	<g>
		<rect x="172" y="1938.4" class="st5" width="452.5" height="103.6"/>
		<text transform="matrix(1 0 0 1 178.679 1954.8771)"><tspan x="0" y="0" class="st0 st3 st4">The 50 million trees used to build the pagoda </tspan><tspan x="5.1" y="26.4" class="st0 st3 st4">are equivalent to filling the entire area of the </tspan><tspan x="-3.3" y="52.8" class="st0 st3 st4">Chaoyang district with trees, and a little more.</tspan></text>
	</g>
	<text transform="matrix(1 0 0 1 516.9797 2222.3516)"><tspan x="0" y="0" class="st0 st3 st6">Andorra</tspan><tspan x="-28" y="21.6" class="st0 st3 st6">(Country area)</tspan></text>
	<text transform="matrix(1 0 0 1 509.1428 2080.3701)" class="st0 st7 st8">468 km²</text>
	<text transform="matrix(1 0 0 1 325.7336 2222.3516)"><tspan x="0" y="0" class="st0 st3 st6">Chaoyang District</tspan><tspan x="16.3" y="21.6" class="st0 st3 st6">Beijing, China.</tspan></text>
	<text transform="matrix(1 0 0 1 361.1848 2075.7227)" class="st0 st7 st8">470 km²</text>
	<text transform="matrix(1 0 0 1 204.2375 2222.3516)"><tspan x="0" y="0" class="st0 st3 st6">50 million</tspan><tspan x="21" y="21.6" class="st0 st3 st6">trees</tspan></text>
	<text transform="matrix(1 0 0 1 204.6711 2071.0723)" class="st0 st7 st8">500 km²</text>
	<rect x="5.3" y="1670.9" class="st5" width="204.7" height="200.1"/>
	<text transform="matrix(1 0 0 1 5.3293 1687.3594)"><tspan x="0" y="0" class="st0 st3 st4">Cats and birds serve </tspan><tspan x="0" y="26.4" class="st0 st3 st4">as natural guardians </tspan><tspan x="0" y="52.8" class="st0 st3 st4">by feeding on mice </tspan><tspan x="0" y="79.2" class="st0 st3 st4">and wood-boring </tspan><tspan x="0" y="105.6" class="st0 st3 st4">insects at the </tspan><tspan x="0" y="132" class="st0 st3 st4">pagoda.</tspan></text>
	<rect x="258" y="1616.3" class="st5" width="293.9" height="137.9"/>
	<text transform="matrix(1 0 0 1 277.3274 1632.7677)"><tspan x="0" y="0" class="st0 st3 st4">After the deification of the </tspan><tspan x="-14.4" y="26.4" class="st0 st3 st4">Buddha, Buddhism increased </tspan><tspan x="-2.4" y="52.8" class="st0 st3 st4">the content of the blessing </tspan><tspan x="-7.7" y="79.2" class="st0 st3 st4">that could be obtained from </tspan><tspan x="12.7" y="105.6" class="st0 st3 st4">worshiping the Buddha.</tspan></text>
	<g>
		<text transform="matrix(1 0 0 1 33.4192 137.1632)" class="st0 st1 st9">As strong as 50 million trees</text>
	</g>
	<g>
		<text transform="matrix(1 0 0 1 193.1223 60.1632)" class="st10 st7 st11">Sakyamuni Pagoda</text>
	</g>
	<polygon class="st5" points="791.1,611.3 606,611.3 647.5,850 791.1,850 	"/>
	<text transform="matrix(1 0 0 1 683.6838 627.7657)"><tspan x="0" y="0" class="st0 st3 st4">Sakyamuni </tspan><tspan x="-67.9" y="26.4" class="st0 st3 st4">Pagoda is located </tspan><tspan x="-19.4" y="52.8" class="st0 st3 st4">in the temple </tspan><tspan x="-23.1" y="79.2" class="st0 st3 st4">compound of </tspan><tspan x="-45.5" y="105.6" class="st0 st3 st4">Fogong Temple </tspan><tspan x="-37" y="132" class="st0 st3 st4">in Ying County, </tspan><tspan x="5.6" y="158.4" class="st0 st3 st4">Shuozhou, </tspan><tspan x="36.1" y="184.8" class="st0 st3 st4">Shanxi.</tspan></text>
	<text transform="matrix(1 0 0 1 631.2607 507.8774)" class="st12 st3 st4">SHANXI</text>
	<path class="st0" d="M796.4,435.4H690c-1.5,0-2.8-1.3-2.8-2.8v-13.5c0-1.5,1.3-2.8,2.8-2.8h106.4c1.5,0,2.8,1.3,2.8,2.8v13.5
		C799.3,434.1,798,435.4,796.4,435.4z"/>
	<g>
		<text transform="matrix(1 0 0 1 689.7637 432.8457)" class="st13 st7 st6">SHUOZHOU</text>
	</g>
	<g>
		<g>
			<polyline class="st14" points="687.2,426.9 669.5,426.9 669.5,461.1 			"/>
			<g>
				<path class="st15" d="M665.8,461.1c0,2.1,1.7,3.8,3.8,3.8s3.8-1.7,3.8-3.8c0-2.1-1.7-3.8-3.8-3.8S665.8,459,665.8,461.1z"/>
			</g>
		</g>
	</g>
	<g>
		<text transform="matrix(1 0 0 1 282.4338 1786.8156)" class="st10 st7 st16">50 MILLIONS TREES</text>
	</g>
	<g>
		<text transform="matrix(1 0 0 1 5.3274 1569.0167)" class="st10 st7 st17">PROTECTORS</text>
	</g>
	<rect x="9" y="447.5" class="st5" width="289.7" height="147.5"/>
	<text transform="matrix(1 0 0 1 78.8723 463.9908)"><tspan x="0" y="0" class="st0 st3 st4">The top of the pagoda, </tspan><tspan x="-47" y="26.4" class="st0 st3 st4">known as a finial, is formed </tspan><tspan x="-59.8" y="52.8" class="st0 st3 st4">by iron or stone components </tspan><tspan x="-52" y="79.2" class="st0 st3 st4">that carry special Buddhism </tspan><tspan x="-2.7" y="105.6" class="st0 st3 st4">and cultural meanings.</tspan></text>
	<rect x="33.7" y="184" class="st5" width="733.5" height="139.2"/>
	<text transform="matrix(1 0 0 1 78.9593 205.0084)"><tspan x="0" y="0" class="st0 st3 st18">The Yingxian Pagoda, also known as the Sakyamuni </tspan><tspan x="-20.8" y="33.6" class="st0 st3 st18">Pagoda of Fogong Temple, was built in 1056 during the </tspan><tspan x="-28.8" y="67.2" class="st0 st3 st18">Liao Dynasty, it stands as the oldest and tallest surviving </tspan><tspan x="124" y="100.8" class="st0 st3 st18">all-wooden pagoda in the world.</tspan></text>
	<g>
		<text transform="matrix(1 0 0 1 457.9924 469.7531)"><tspan x="0" y="0" class="st0 st3 st4">Total</tspan><tspan x="0" y="26.4" class="st0 st3 st4">height</tspan><tspan x="0" y="52.8" class="st0 st7 st4">67.31 m</tspan></text>
	</g>
	<g>
		<text transform="matrix(1 0 0 1 63.217 371.2296)" class="st19 st3 st8">Click the numbers to know more about the Buddhas chambers</text>
	</g>
	<g>
		<text transform="matrix(1 0 0 1 316.9749 516.6119)" class="st0 st7 st4">11 m</text>
	</g>
</g>
</svg>
