<?xml version="1.0" encoding="utf-8"?>
<!-- Generator: Adobe Illustrator 26.5.0, SVG Export Plug-In . SVG Version: 6.00 Build 0)  -->
<svg version="1.1" id="Capa_1" xmlns="http://www.w3.org/2000/svg" xmlns:xlink="http://www.w3.org/1999/xlink" x="0px" y="0px"
	 viewBox="0 0 800 2271" style="enable-background:new 0 0 800 2271;" xml:space="preserve">
<style type="text/css">
	@import url('https://fonts.googleapis.com/css?family=Roboto:300,400,700');
	.st0{fill:#231815;}
	.st1{font-family:'Roboto-Bold';}
	.st2{font-size:40px;}
	.st3{font-family:'Roboto-Light';}
	.st4{font-size:22px;}
	.st5{fill:none;}
	.st6{font-size:20px;}
	.st7{font-size:24px;}
	.st8{font-size:56px;}
	.st9{fill:#DD531C;}
	.st10{font-size:48px;}
	.st11{fill:#717071;}
	.st12{fill:#FFFFFF;}
	.st13{fill:none;stroke:#E95513;stroke-miterlimit:10;}
	.st14{fill:#E95513;}
	.st15{font-size:26px;}
	.st16{fill:#0099C9;}
	.st17{fill:none;stroke:#0099C9;stroke-width:2;stroke-miterlimit:10;}
	.st18{font-size:28px;}
</style>
<g id="Layer_1">
	
		<image style="overflow:visible;enable-background:new    ;" width="801" height="2271" xlink:href="CB7F100B7640C510.jpg"  transform="matrix(1 0 0 1 -2 0)">
	</image>
</g>
<g id="Layer_2">
	<g>
		<text transform="matrix(1 0 0 1 316.9104 1883.7941)" class="st0 st1 st2">500 km2</text>
	</g>
	<g>
		<text transform="matrix(1 0 0 1 257.1965 1815.5299)" class="st0 st3 st4">The wooden pagoda is made</text>
		<text transform="matrix(1 0 0 1 293.5965 1839.5299)" class="st0 st3 st4">with the equivalent of</text>
	</g>
	<g>
		<rect x="172" y="1938.4" class="st5" width="452.5" height="103.6"/>
		<text transform="matrix(1 0 0 1 178.679 1954.8771)" class="st0 st3 st4">The 50 million trees used to build the pagoda </text>
		<text transform="matrix(1 0 0 1 183.779 1981.2771)" class="st0 st3 st4">are equivalent to filling the entire area of the </text>
		<text transform="matrix(1 0 0 1 175.379 2007.677)" class="st0 st3 st4">Chaoyang district with trees, and a little more.</text>
	</g>
	<text transform="matrix(1 0 0 1 516.9797 2222.3516)" class="st0 st3 st6">Andorra</text>
	<text transform="matrix(1 0 0 1 488.9797 2243.9517)" class="st0 st3 st6">(Country area)</text>
	<text transform="matrix(1 0 0 1 509.1428 2080.3701)" class="st0 st1 st7">468 km²</text>
	<text transform="matrix(1 0 0 1 325.7336 2222.3516)" class="st0 st3 st6">Chaoyang District</text>
	<text transform="matrix(1 0 0 1 342.0336 2243.9517)" class="st0 st3 st6">Beijing, China.</text>
	<text transform="matrix(1 0 0 1 361.1848 2075.7227)" class="st0 st1 st7">470 km²</text>
	<text transform="matrix(1 0 0 1 204.2375 2222.3516)" class="st0 st3 st6">50 million</text>
	<text transform="matrix(1 0 0 1 225.2375 2243.9517)" class="st0 st3 st6">trees</text>
	<text transform="matrix(1 0 0 1 204.6711 2071.0723)" class="st0 st1 st7">500 km²</text>
	<rect x="5.3" y="1670.9" class="st5" width="204.7" height="200.1"/>
	<rect x="258" y="1616.3" class="st5" width="293.9" height="137.9"/>
	<g>
		<text transform="matrix(1 0 0 1 35.4192 160.1632)" class="st0 st1 st8">As strong as 50 million trees</text>
	</g>
	<g>
		<text transform="matrix(1 0 0 1 195.1223 83.1632)" class="st9 st1 st10">Sakyamuni Pagoda</text>
	</g>
	<polygon class="st5" points="791.1,611.3 606,611.3 647.5,850 791.1,850 	"/>
	<text transform="matrix(1 0 0 1 631.2607 507.8774)" class="st11 st3 st4">SHANXI</text>
	<path class="st0" d="M796.4,435.4H690c-1.5,0-2.8-1.3-2.8-2.8v-13.5c0-1.5,1.3-2.8,2.8-2.8h106.4c1.5,0,2.8,1.3,2.8,2.8v13.5
		C799.3,434.1,798,435.4,796.4,435.4z"/>
	<g>
		<text transform="matrix(1 0 0 1 689.7637 432.8457)" class="st12 st1 st6">SHUOZHOU</text>
	</g>
	<g>
		<g>
			<polyline class="st13" points="687.2,426.9 669.5,426.9 669.5,461.1 			"/>
			<g>
				<path class="st14" d="M665.8,461.1c0,2.1,1.7,3.8,3.8,3.8s3.8-1.7,3.8-3.8c0-2.1-1.7-3.8-3.8-3.8S665.8,459,665.8,461.1z"/>
			</g>
		</g>
	</g>
	<g>
		<text transform="matrix(1 0 0 1 282.4338 1786.8156)" class="st9 st1 st15">50 MILLIONS TREES</text>
	</g>
	<rect x="9" y="447.5" class="st5" width="289.7" height="147.5"/>
	<text transform="matrix(1 0 0 1 78.8723 463.9908)" class="st0 st3 st4">The top of the pagoda, </text>
	<text transform="matrix(1 0 0 1 31.8723 490.3909)" class="st0 st3 st4">known as a finial, is formed </text>
	<text transform="matrix(1 0 0 1 19.0723 516.7908)" class="st0 st3 st4">by iron or stone components </text>
	<text transform="matrix(1 0 0 1 26.8723 543.1908)" class="st0 st3 st4">that carry special Buddhism </text>
	<text transform="matrix(1 0 0 1 76.1723 569.5908)" class="st0 st3 st4">and cultural meanings.</text>
	<rect x="33.7" y="184" class="st5" width="733.5" height="139.2"/>
	<g>
		<text transform="matrix(1 0 0 1 457.9924 469.7532)" class="st0 st3 st4">Total</text>
		<text transform="matrix(1 0 0 1 457.9924 496.1531)" class="st0 st3 st4">height</text>
		<text transform="matrix(1 0 0 1 457.9924 522.5531)" class="st0 st1 st4">67.31 m</text>
	</g>
	<g>
		<text transform="matrix(1 0 0 1 316.9749 516.6118)" class="st0 st1 st4">11 m</text>
	</g>
	<rect x="69.4" y="595.5" class="st5" width="177.6" height="168.9"/>
	<text transform="matrix(1 0 0 1 69.375 612.0171)"><tspan x="0" y="0" class="st16 st3 st4">Click the numbers </tspan><tspan x="0" y="26.4" class="st16 st3 st4">to kow the Budd</tspan><tspan x="155.6" y="26.4" class="st16 st3 st4">-</tspan><tspan x="0" y="52.8" class="st16 st3 st4">has chambers</tspan></text>
	<g>
		<g>
			<path class="st17" d="M90.7,685.6c0,0-16.6,95.4,99.1,130.9"/>
			<g>
				<polygon class="st16" points="184.3,825.2 203.7,820.4 189.8,806.1 				"/>
			</g>
		</g>
	</g>
	<g>
		<g>
			<path class="st16" d="M28.4,597.3c1,0.2,2.1,0.4,3.1,0.8c5.9,2.1,9.5,7.6,9,13.9c-0.1,1.5-0.5,3-1.2,4.4c-0.4,0.9-1.2,1.2-2,0.9
				c-0.8-0.3-1.2-1.2-0.8-2.1c0.6-1.3,0.9-2.7,1-4.2c0.2-5.2-3.6-9.8-8.8-10.6c-5.8-0.8-11.2,3.2-11.8,9c-0.3,2.7,0.4,5.2,2,7.4
				c0.2,0.3,0.5,0.7,0.6,1c0.2,0.7-0.1,1.4-0.8,1.7c-0.6,0.3-1.4,0.2-1.9-0.4c-1.3-1.5-2.2-3.3-2.7-5.2c-1.7-6.9,1.9-13.6,8.7-16
				c1-0.3,2-0.5,3-0.7C26.7,597.3,27.5,597.3,28.4,597.3z"/>
			<path class="st16" d="M38,662.3c-3.1,0-6.3,0-9.4,0c-1.5,0-2.2-0.6-2.3-2.1c-0.1-1.8-0.2-3.5-0.4-5.3c-0.1-0.5-0.3-1.1-0.6-1.5
				c-2-3.1-3.8-6.2-5.2-9.6c-0.8-2.1-1.5-4.3-1.4-6.6c0.1-2.1,0.9-3.8,2.9-4.7c0.9-0.4,1.3-1.1,1.3-2.1c0-7.3,0-14.6,0-22
				c0-1.5,0.3-2.8,1.7-3.7c1.4-1,2.9-1,4.5-0.3c1.4,0.7,2.1,1.9,2.1,3.5c0,3.4,0,6.9,0,10.3c0,1.8,0.7,2.4,2.5,2.3
				c2-0.2,3.7,0.4,5,2c0.6,0.8,1.4,1.1,2.4,0.9c2.6-0.6,4.7,0.1,6.3,2.4c0.5,0.7,1.2,0.8,1.9,0.9c2.1,0.2,3.7,1.1,4.9,2.9
				c0.9,1.3,1.3,2.8,1.5,4.3c1,7-0.7,13.3-4.4,19.2c-0.7,1.2-0.9,2.4-1.1,3.7c-0.2,1.3-0.3,2.6-0.5,3.9c-0.2,1.2-0.8,1.8-2.1,1.8
				C44.4,662.2,41.2,662.2,38,662.3C38,662.3,38,662.3,38,662.3z"/>
		</g>
	</g>
	<g>
		<rect x="111.8" y="215.9" class="st5" width="573.4" height="181.6"/>
		<text transform="matrix(1 0 0 1 121.2823 236.882)"><tspan x="0" y="0" class="st0 st3 st18">The Yingxian Wooden Pagoda, also known as </tspan><tspan x="18" y="33.6" class="st0 st3 st18">the Sakyamuni Pagoda of Fogong Temple, </tspan><tspan x="11.9" y="67.2" class="st0 st3 st18">was built in 1056 during the Liao Dynasty. It </tspan><tspan x="28.8" y="100.8" class="st0 st3 st18">stands as the oldest and tallest surviving </tspan><tspan x="100.9" y="134.4" class="st0 st3 st18">wooden pagoda in the world.</tspan></text>
	</g>
	<polygon class="st5" points="794.4,880.7 650.8,880.7 610.8,607.1 794.4,607.1 	"/>
	<text transform="matrix(1 0 0 1 646.087 623.5652)"><tspan x="0" y="0" class="st0 st3 st4">The Sakyamuni </tspan><tspan x="-23.3" y="26.4" class="st0 st3 st4">Pagoda is located </tspan><tspan x="-3.1" y="52.8" class="st0 st3 st4">in ground of the </tspan><tspan x="49.9" y="79.2" class="st0 st3 st4">of Fogong </tspan><tspan x="53.5" y="105.6" class="st0 st3 st4">Temple in </tspan><tspan x="-8.4" y="132" class="st0 st3 st4">Yingxian county, </tspan><tspan x="47.4" y="158.4" class="st0 st3 st4">Shuozhou, </tspan><tspan x="78.5" y="184.8" class="st0 st3 st4">Shanxi.</tspan></text>
	<g>
		<rect x="248.8" y="1619" class="st5" width="300.8" height="152.8"/>
		<text transform="matrix(1 0 0 1 274.6838 1635.4717)"><tspan x="0" y="0" class="st0 st3 st4">After the deification of the </tspan><tspan x="-16.7" y="26.4" class="st0 st3 st4">Buddha, worshiping gradually </tspan><tspan x="-9.7" y="52.8" class="st0 st3 st4">became the most important </tspan><tspan x="-21.1" y="79.2" class="st0 st3 st4">and basic element of Buddhist </tspan><tspan x="79.4" y="105.6" class="st0 st3 st4">activities.</tspan></text>
	</g>
</g>
</svg>
