<?xml version="1.0" encoding="utf-8"?>
<!-- Generator: Adobe Illustrator 24.3.2, SVG Export Plug-In . SVG Version: 6.00 Build 0)  -->
<svg version="1.1" xmlns="http://www.w3.org/2000/svg" xmlns:xlink="http://www.w3.org/1999/xlink" x="0px" y="0px"
	 viewBox="0 0 1920 3892" style="enable-background:new 0 0 1920 3892;" xml:space="preserve">
<style type="text/css">
	@import url('https://fonts.googleapis.com/css?family=Roboto:300,400,700'; 'https://fonts.googleapis.com/css2?family=Merriweather:300,400,700,900');
	.st0{fill:none;}
	.st1{fill:#231815;}
	.st2{font-family:'Roboto';font-weight: 300;}
	.st3{font-size:24px;}
	.st4{font-family:'Merriweather';font-weight: 700;}
	.st5{font-size:80px;}
	.st6{font-family:'Roboto';font-weight: 700;}
	.st7{font-size:24.7688px;}
	.st8{font-size:50px;}
	.st9{font-size:30px;}
	.st10{fill:#DD531C;}
	.st11{font-size:52px;}
	.st12{fill:#717071;}
	.st13{fill:none;stroke:#231815;stroke-miterlimit:10;}
	.st14{font-size:28px;}
</style>
<g id="Layer_1">
	<image style="overflow:visible;" width="1920" height="3892" xlink:href="8E77050DDB2A0371.jpg" >
	</image>
</g>
<g id="Layer_2">
	<rect x="1619.9" y="1495.7" class="st0" width="244.3" height="156.9"/>
	<text transform="matrix(1 0 0 1 1619.9282 1513.7065)"><tspan x="0" y="0" class="st1 st2 st3">Cats and birds serve </tspan><tspan x="0" y="29.7" class="st1 st2 st3">as natural guardians </tspan><tspan x="0" y="59.4" class="st1 st2 st3">by feeding on mice </tspan><tspan x="0" y="89.2" class="st1 st2 st3">and wood-boring </tspan><tspan x="0" y="118.9" class="st1 st2 st3">insects at the pagoda.</tspan></text>
	<g>
		<rect x="1619.9" y="1826.6" class="st0" width="208.3" height="88.1"/>
		<text transform="matrix(1 0 0 1 1619.9285 1844.5581)"><tspan x="0" y="0" class="st1 st2 st3">Chinese swallow </tspan><tspan x="0" y="29.7" class="st1 st2 st3">known as Mayan</tspan></text>
	</g>
	<rect x="564.2" y="515.4" class="st0" width="244.3" height="278.7"/>
	<text transform="matrix(1 0 0 1 637.5072 533.4424)"><tspan x="0" y="0" class="st1 st2 st3">Iron axis carring </tspan><tspan x="-55.5" y="29.7" class="st1 st2 st3">pearls, treasure caps, </tspan><tspan x="-27.5" y="59.4" class="st1 st2 st3">solar wheel, moon, </tspan><tspan x="-23.7" y="89.2" class="st1 st2 st3">circular light, tiara, </tspan><tspan x="-35.6" y="118.9" class="st1 st2 st3">phase wheel, basin, </tspan><tspan x="-31.4" y="148.6" class="st1 st2 st3">and lotus chains to </tspan><tspan x="-5.9" y="178.3" class="st1 st2 st3">form a gorgeous </tspan><tspan x="-59.3" y="208.1" class="st1 st2 st3">prayer brake from top </tspan><tspan x="59.7" y="237.8" class="st1 st2 st3">to bottom.</tspan></text>
	<rect x="589.6" y="253.4" class="st0" width="733.5" height="139.2"/>
	<text transform="matrix(1 0 0 1 622.9105 271.4424)"><tspan x="0" y="0" class="st1 st2 st3">The Yingxian Pagoda, also known as the Sakyamuni Pagoda of </tspan><tspan x="-24.5" y="29.7" class="st1 st2 st3">Fogong Temple, was built in 1056 during the Liao Dynasty, it stands </tspan><tspan x="-16.5" y="59.4" class="st1 st2 st3">as the oldest and tallest surviving all-wooden pagoda in the world.</tspan><tspan x="-17.1" y="89.2" class="st1 st2 st3">While it appears to have five stories and six eaves, it contains nine </tspan><tspan x="117.7" y="118.9" class="st1 st2 st3">layers—five visible and four hidden ones.</tspan></text>
	<rect x="751.2" y="2904.5" class="st0" width="403.9" height="217.1"/>
	<text transform="matrix(1 0 0 1 767.8265 2922.5249)"><tspan x="0" y="0" class="st1 st2 st3">After the deification of the Buddha, </tspan><tspan x="-1" y="29.7" class="st1 st2 st3">Buddhism increased the content of </tspan><tspan x="-1.2" y="59.4" class="st1 st2 st3">the blessing that could be obtained </tspan><tspan x="31.4" y="89.2" class="st1 st2 st3">from worshiping the Buddha. </tspan><tspan x="-4.2" y="118.9" class="st1 st2 st3">Worshiping of the Buddha gradually </tspan><tspan x="14.3" y="148.6" class="st1 st2 st3">became the most important and </tspan><tspan x="-7.4" y="178.3" class="st1 st2 st3">basic element of Buddhist activities.</tspan></text>
	<g>
		<text transform="matrix(1 0 0 1 1076.3207 527.6636)" class="st1 st2 st3">Total height 67.31 m</text>
	</g>
	<g>
		<text transform="matrix(1 0 0 1 684.7367 440.6636)" class="st1 st2 st3">Click the numbers to kow the Buddhas chambers</text>
	</g>
	<g>
		<text transform="matrix(1 0 0 1 473.1146 212.5972)" class="st1 st4 st5">As strong as 50 million trees</text>
	</g>
	<text transform="matrix(1 0 0 1 819.9974 657.3824)" class="st1 st6 st7">11 m</text>
	<g>
		<text transform="matrix(1 0 0 1 844.1155 3333.2388)" class="st1 st4 st8">500 km2</text>
	</g>
	<text transform="matrix(1 0 0 1 674.8167 3263.2153)" class="st1 st2 st3">The wooden pagoda is made with the equivalent of</text>
	<g>
		<rect x="541.4" y="3416.3" class="st0" width="808.8" height="70.3"/>
		<text transform="matrix(1 0 0 1 562.7836 3434.3364)"><tspan x="0" y="0" class="st1 st2 st3">The 50 million trees used to build the pagoda are equivalent to filling the </tspan><tspan x="46.4" y="28.8" class="st1 st2 st3">entire area of the Chaoyang district with trees, and a little more.</tspan></text>
	</g>
	<text transform="matrix(1 0 0 1 1098.6146 3752.0767)"><tspan x="0" y="0" class="st1 st2 st3">Andorra</tspan><tspan x="-33.6" y="28.8" class="st1 st2 st3">(Country area)</tspan></text>
	<text transform="matrix(1 0 0 1 1087.0638 3559.5063)" class="st1 st6 st9">468 km²</text>
	<text transform="matrix(1 0 0 1 859.1805 3752.0767)"><tspan x="0" y="0" class="st1 st2 st3">Chaoyang District</tspan><tspan x="19.5" y="28.8" class="st1 st2 st3">Beijing, China.</tspan></text>
	<text transform="matrix(1 0 0 1 899.5912 3553.6177)" class="st1 st6 st9">470 km²</text>
	<text transform="matrix(1 0 0 1 702.8729 3752.0767)"><tspan x="0" y="0" class="st1 st2 st3">50 million</tspan><tspan x="25.2" y="28.8" class="st1 st2 st3">trees</tspan></text>
	<text transform="matrix(1 0 0 1 701.2787 3547.7251)" class="st1 st6 st9">500 km²</text>
	<g>
		<text transform="matrix(1 0 0 1 739.9144 115.5972)" class="st10 st6 st11">Sakyamuni Pagoda</text>
	</g>
	<rect x="1369.2" y="765.7" class="st0" width="410" height="127.9"/>
	<text transform="matrix(1 0 0 1 1384.6322 783.7232)"><tspan x="0" y="0" class="st1 st2 st3">Sakyamuni Pagoda is located in the </tspan><tspan x="-7.8" y="29.7" class="st1 st2 st3">temple compound of Fogong Temple </tspan><tspan x="10.4" y="59.4" class="st1 st2 st3">in Ying County, Shuozhou, Shanxi.</tspan></text>
	<text transform="matrix(1 0 0 1 1540.1752 634.48)" class="st12 st2 st9">SHANXI</text>
	<rect x="1604.2" y="1423.6" class="st13" width="267.5" height="730"/>
	<g>
		<text transform="matrix(1 0 0 1 817.4641 3224.2983)" class="st10 st6 st14">50 MILLIONS TREES</text>
	</g>
	<g>
		<text transform="matrix(1 0 0 1 1619.9281 1468.6616)" class="st10 st6 st14">PROTECTORS</text>
	</g>
	<line class="st13" x1="1604.2" y1="2051.2" x2="1525.3" y2="2051.2"/>
	<path class="st13" d="M1671.3,2153.9c0,0-7.7,153.2-48.2,259.2"/>
</g>
</svg>
