<?xml version="1.0" encoding="utf-8"?>
<!-- Generator: Adobe Illustrator 26.5.0, SVG Export Plug-In . SVG Version: 6.00 Build 0)  -->
<svg version="1.1" id="Layer_1" xmlns="http://www.w3.org/2000/svg" xmlns:xlink="http://www.w3.org/1999/xlink" x="0px" y="0px"
	 viewBox="0 0 800 809" style="enable-background:new 0 0 800 809;" xml:space="preserve">
<style type="text/css">
	.st0{fill:#231815;}
	.st1{font-family:'Roboto-Bold';}
	.st2{font-size:28px;}
	.st3{font-family:'Roboto-Light';}
	.st4{fill:#DD531C;}
	.st5{fill:none;}
</style>
<image style="overflow:visible;enable-background:new    ;" width="788" height="708" xlink:href="E3386DA35B57B043.png"  transform="matrix(1 0 0 1 7 101)">
</image>
<polygon class="st0" points="124.5,612 113.2,623.4 101.9,612 "/>
<g>
	<text transform="matrix(1 0 0 1 60.8525 599.2383)" class="st0 st1 st2">67.31 m</text>
</g>
<g>
	<text transform="matrix(1 0 0 1 375.9873 295.7139)" class="st0 st1 st2">234 m</text>
</g>
<g>
	<text transform="matrix(1 0 0 1 351.4639 641.418)" class="st0 st1 st2">55.86 m</text>
</g>
<g>
	<text transform="matrix(1 0 0 1 337.5049 605.627)" class="st0 st3 st2">Pisa tower</text>
</g>
<g>
	<text transform="matrix(1 0 0 1 8.332 562.0469)" class="st4 st3 st2">Yingxian Pagoda</text>
</g>
<g>
	<text transform="matrix(1 0 0 1 375.0029 262.1182)" class="st0 st3 st2">CGTN building</text>
</g>
<g>
	<text transform="matrix(1 0 0 1 519.9951 54.2012)" class="st0 st3 st2">Eiffel tower</text>
</g>
<g>
	<text transform="matrix(1 0 0 1 577.0801 86.249)" class="st0 st1 st2">330 m</text>
</g>
<rect x="3" y="27.3" class="st5" width="266" height="384.5"/>
<g>
	<polygon class="st5" points="301.9,321.6 10.7,321.6 10.7,29.3 491.9,29.3 	"/>
	<text transform="matrix(1 0 0 1 10.7468 50.2999)"><tspan x="0" y="0" class="st0 st3 st2">In November 2012, the Yingxian </tspan><tspan x="0" y="33.6" class="st0 st3 st2">Wooden Pagoda was included in the </tspan><tspan x="0" y="67.2" class="st0 st3 st2">preparatory list of China’s World </tspan><tspan x="0" y="100.8" class="st0 st3 st2">Heritage Sites. Alongside the Le</tspan><tspan x="387.3" y="100.8" class="st0 st3 st2">-</tspan><tspan x="0" y="134.4" class="st0 st3 st2">aning Tower of Pisa and the </tspan><tspan x="0" y="168" class="st0 st3 st2">Eiffel Tower, it is considered </tspan><tspan x="0" y="201.6" class="st0 st3 st2">one of the world&apos;s three </tspan><tspan x="0" y="235.2" class="st0 st3 st2">great towers.</tspan></text>
</g>
</svg>
